<svg xmlns="http://www.w3.org/2000/svg" viewBox="0 0 512 512" role="img" aria-label="GuildQuest">
  <defs>
    <radialGradient id="bg" cx="50%" cy="35%" r="70%">
      <stop offset="0%" stop-color="#2dd4bf"/>
      <stop offset="48%" stop-color="#312e81"/>
      <stop offset="100%" stop-color="#020617"/>
    </radialGradient>
    <linearGradient id="gold" x1="120" y1="80" x2="392" y2="432" gradientUnits="userSpaceOnUse">
      <stop stop-color="#fef3c7"/>
      <stop offset="0.45" stop-color="#facc15"/>
      <stop offset="1" stop-color="#f59e0b"/>
    </linearGradient>
  </defs>
  <rect width="512" height="512" rx="112" fill="url(#bg)"/>
  <circle cx="256" cy="256" r="174" fill="none" stroke="#2dd4bf" stroke-width="16" opacity="0.55"/>
  <circle cx="256" cy="256" r="124" fill="none" stroke="#facc15" stroke-width="10" opacity="0.65"/>
  <path d="M256 88l122 64v91c0 82-48 144-122 181-74-37-122-99-122-181v-91L256 88z" fill="#020617" opacity="0.72" stroke="url(#gold)" stroke-width="18" stroke-linejoin="round"/>
  <path d="M203 178h106c31 0 56 25 56 56v9c0 73-49 121-109 145-60-24-109-72-109-145v-9c0-31 25-56 56-56z" fill="#0f172a" stroke="#2dd4bf" stroke-width="12"/>
  <path d="M198 253h116M198 305h86" stroke="url(#gold)" stroke-width="24" stroke-linecap="round"/>
  <path d="M314 253l-38 52 58 56" fill="none" stroke="#f8fafc" stroke-width="24" stroke-linecap="round" stroke-linejoin="round"/>
  <circle cx="256" cy="256" r="16" fill="#facc15"/>
</svg>
