<svg xmlns="http://www.w3.org/2000/svg" viewBox="0 0 512 512" role="img" aria-label="GuildQuest Flame Guild">
  <defs>
    <radialGradient id="bg" cx="50%" cy="36%" r="82%">
      <stop offset="0%" stop-color="#67e8f9"/>
      <stop offset="28%" stop-color="#fb7185"/>
      <stop offset="60%" stop-color="#7c2d12"/>
      <stop offset="100%" stop-color="#020617"/>
    </radialGradient>
    <linearGradient id="gold" x1="112" y1="70" x2="408" y2="442" gradientUnits="userSpaceOnUse">
      <stop stop-color="#fff7cc"/>
      <stop offset="0.45" stop-color="#fde047"/>
      <stop offset="1" stop-color="#fb923c"/>
    </linearGradient>
    <linearGradient id="aqua" x1="172" y1="144" x2="340" y2="392" gradientUnits="userSpaceOnUse">
      <stop stop-color="#ecfeff"/>
      <stop offset="0.45" stop-color="#22d3ee"/>
      <stop offset="1" stop-color="#0f766e"/>
    </linearGradient>
    <filter id="softGlow" x="-40%" y="-40%" width="180%" height="180%">
      <feGaussianBlur stdDeviation="12" result="blur"/>
      <feMerge>
        <feMergeNode in="blur"/>
        <feMergeNode in="SourceGraphic"/>
      </feMerge>
    </filter>
  </defs>
  <rect width="512" height="512" rx="112" fill="url(#bg)"/>
  <path d="M86 284c56-22 99-13 132 27M426 284c-56-22-99-13-132 27" fill="none" stroke="#67e8f9" stroke-width="18" stroke-linecap="round" opacity="0.72"/>
  <circle cx="256" cy="262" r="184" fill="#050816" opacity="0.76" stroke="url(#gold)" stroke-width="18"/>
  <circle cx="256" cy="262" r="142" fill="none" stroke="#67e8f9" stroke-width="8" opacity="0.55"/>
  <path d="M256 70c71 62 94 122 64 180 46-19 85 7 97 56-35 84-96 134-161 134S130 390 95 306c12-49 51-75 97-56-30-58-7-118 64-180Z" fill="#ef4444" stroke="url(#gold)" stroke-width="20" stroke-linejoin="round" filter="url(#softGlow)"/>
  <path d="M256 150c39 49 48 91 25 132 31-11 57 8 64 40-22 44-55 70-89 70s-67-26-89-70c7-32 33-51 64-40-23-41-14-83 25-132Z" fill="url(#aqua)"/>
  <path d="M149 158c46 0 78 20 101 60M363 158c-46 0-78 20-101 60" fill="none" stroke="#fff7cc" stroke-width="22" stroke-linecap="round"/>
  <path d="M206 305h100M226 350h60" stroke="#020617" stroke-width="24" stroke-linecap="round" opacity="0.72"/>
</svg>
