<svg xmlns="http://www.w3.org/2000/svg" viewBox="0 0 512 512" role="img" aria-label="GuildQuest">
  <defs>
    <radialGradient id="bg" cx="48%" cy="35%" r="78%">
      <stop offset="0%" stop-color="#5ffaff"/>
      <stop offset="32%" stop-color="#ef4444"/>
      <stop offset="68%" stop-color="#4c1d95"/>
      <stop offset="100%" stop-color="#020617"/>
    </radialGradient>
    <linearGradient id="gold" x1="116" y1="72" x2="396" y2="442" gradientUnits="userSpaceOnUse">
      <stop stop-color="#fff7cc"/>
      <stop offset="0.48" stop-color="#facc15"/>
      <stop offset="1" stop-color="#f97316"/>
    </linearGradient>
    <filter id="glow" x="-30%" y="-30%" width="160%" height="160%">
      <feGaussianBlur stdDeviation="10" result="blur"/>
      <feMerge>
        <feMergeNode in="blur"/>
        <feMergeNode in="SourceGraphic"/>
      </feMerge>
    </filter>
  </defs>
  <rect width="512" height="512" rx="112" fill="url(#bg)"/>
  <circle cx="256" cy="266" r="182" fill="#050816" opacity="0.76" stroke="url(#gold)" stroke-width="18"/>
  <circle cx="256" cy="266" r="138" fill="none" stroke="#38f8ff" stroke-width="8" opacity="0.7"/>
  <path d="M256 74c70 61 92 118 63 174 45-18 82 7 93 54-34 82-93 130-156 130S134 384 100 302c11-47 48-72 93-54-29-56-7-113 63-174Z" fill="#ef4444" stroke="url(#gold)" stroke-width="20" stroke-linejoin="round" filter="url(#glow)"/>
  <path d="M256 154c38 47 46 87 24 126 30-10 55 8 61 39-21 42-52 67-85 67s-64-25-85-67c6-31 31-49 61-39-22-39-14-79 24-126Z" fill="#38f8ff" opacity="0.95"/>
  <path d="M145 160c45 0 76 20 98 58M367 160c-45 0-76 20-98 58" fill="none" stroke="#fff7cc" stroke-width="22" stroke-linecap="round"/>
  <path d="M206 306h100M226 350h60" stroke="#020617" stroke-width="24" stroke-linecap="round" opacity="0.72"/>
</svg>
